<?xml version="1.0"?>
<svg xmlns="http://www.w3.org/2000/svg" xmlns:xlink="http://www.w3.org/1999/xlink" xmlns:svgjs="http://svgjs.com/svgjs" version="1.1" width="512" height="512" x="0" y="0" viewBox="0 0 512 512" style="enable-background:new 0 0 512 512" xml:space="preserve" class=""><g><g xmlns="http://www.w3.org/2000/svg"><path d="m107.65 324.11v-136.659l-80.498-46.476c-17.758 35.244-27.152 74.413-27.152 115.025 0 40.481 9.336 79.527 26.984 114.683z" fill="#f4623a" data-original="#000000" style="" class=""/><path d="m107.65 152.81v-45.16h133.35v-107.203c-62.739 3.601-121.22 29.735-166.019 74.533-12.373 12.372-23.312 25.794-32.758 40.055z" fill="#f4623a" data-original="#000000" style="" class=""/><path d="m241 404.35h-133.35v-45.599l-65.635 37.894c9.493 14.38 20.501 27.91 32.966 40.375 44.799 44.798 103.28 70.932 166.019 74.533z" fill="#f4623a" data-original="#000000" style="" class=""/><path d="m404.35 358.751v45.599h-133.35v107.204c62.739-3.602 121.221-29.735 166.02-74.534 12.464-12.464 23.472-25.995 32.966-40.374z" fill="#f4623a" data-original="#000000" style="" class=""/><path d="m404.35 187.451v136.659l80.666 46.572c17.648-35.155 26.984-74.201 26.984-114.682 0-40.612-9.394-79.781-27.152-115.025z" fill="#f4623a" data-original="#000000" style="" class=""/><path d="m271 107.65h133.35v45.16l65.428-37.775c-9.446-14.261-20.385-27.683-32.758-40.055-44.799-44.798-103.281-70.932-166.02-74.533z" fill="#f4623a" data-original="#000000" style="" class=""/><path d="m301.482 270.78h-90.965v-133.13h-72.867v236.7h236.7v-236.7h-72.867v133.13zm32.303 74.886-63.239.058-.027-30 63.239-.058z" fill="#f4623a" data-original="#000000" style="" class=""/><path d="m240.517 137.65h30.965v103.13h-30.965z" fill="#f4623a" data-original="#000000" style="" class=""/></g></g></svg>
